<svg id="Layer_1" data-name="Layer 1" xmlns="http://www.w3.org/2000/svg" viewBox="0 0 836.89 181.72"><defs><style>.cls-1,.cls-2{fill:none;stroke:#fff;stroke-miterlimit:10;stroke-width:3px;}.cls-2{stroke-linecap:round;}</style></defs><rect class="cls-1" x="309.54" y="1.5" width="271.84" height="150.23" rx="5"/><rect class="cls-1" x="672.76" y="39.42" width="97.73" height="139.2" rx="20.47"/><rect class="cls-1" x="786.75" y="96.2" width="48.64" height="80.59" rx="12.67"/><line class="cls-1" x1="445.46" y1="152.43" x2="445.46" y2="180.22"/><line class="cls-2" x1="395.59" y1="180.22" x2="495.34" y2="180.22"/><circle class="cls-1" cx="721.63" cy="162.4" r="5.88"/><circle class="cls-1" cx="811.07" cy="164" r="3.7"/><path class="cls-1" d="M23,48.66H209.47a5,5,0,0,1,5,5V156.12a0,0,0,0,1,0,0H18a0,0,0,0,1,0,0V53.66A5,5,0,0,1,23,48.66Z"/><rect class="cls-1" x="1.5" y="168.22" width="229.5" height="10.43" rx="4.59"/><path class="cls-1" d="M347.46,322.46" transform="translate(-121.56 -154.36)"/><line class="cls-1" x1="214.47" y1="156.12" x2="225.91" y2="168.1"/><path class="cls-1" d="M127.08,322.83" transform="translate(-121.56 -154.36)"/><line class="cls-1" x1="18.02" y1="156.12" x2="5.52" y2="168.48"/></svg>